# xmcd
#
# Track frame offsets:
#	150
#	17255
#	31312
#	51427
#	71857
#	90102
#	104532
#	125685
#	138035
#	153655
#	170727
#	186032
#	209350
#	229420
#
# Disc length: 3358 seconds
#
# Revision: 1
# Processed by: cddbd v1.5.2PL0 Copyright (c) Steve Scherf et al.
# Submitted via: EZCDAudioConverter 7.1.4.1
#
DISCID=c00d1c0e
DTITLE=The Bluebirds [swe] - Walkin' on Thrills
DYEAR=1997
DGENRE=BluesSwe
TTITLE0=Outta Control
TTITLE1=Walkin' on Thrills
TTITLE2=Feelin' Blue
TTITLE3=I Have to Pay
TTITLE4=Can't Live Without You
TTITLE5=Slow Down
TTITLE6=Love Birds
TTITLE7=Frankie's
TTITLE8=Beggin' for My Baby
TTITLE9=Lady Luck
TTITLE10=Goin' Upside Your Head
TTITLE11=How Long?
TTITLE12=Mean Ol' Woman
TTITLE13=Bluebird
EXTD=
EXTT0=
EXTT1=
EXTT2=
EXTT3=
EXTT4=
EXTT5=
EXTT6=
EXTT7=
EXTT8=
EXTT9=
EXTT10=
EXTT11=
EXTT12=
EXTT13=
PLAYORDER=
